<svg xmlns="http://www.w3.org/2000/svg" width="148.405" height="211.678" viewBox="0 0 148.405 211.678">
  <g id="eTax_New_logo" data-name="eTax New logo" transform="translate(0)">
    <path id="Path_2" data-name="Path 2" d="M90.506,22.392C122.19,18.3,141.318,31.1,118.857,51.07,94.174,73.014,42.467,88.378,39.831,88.964s-3.04-2.894,3.652-5.3S64.325,74.582,79.43,65.7c23.563-13.857,29.66-33.321,18.086-36.7-9.938-2.885-36,7.32-56.384,32.726C17.078,91.565,20.506,123.155,57.34,116.17c38.962-7.415,68.4-39.263,71.6-42.966a19.963,19.963,0,0,0,5.038-13.426V0H0V86.3c9.99-26.62,42.562-57.736,90.506-63.911" transform="translate(0)" fill="#fff"/>
    <g id="Group_190" data-name="Group 190" transform="translate(0 145.958)">
      <path id="Path_1" data-name="Path 1" d="M349.8,43.75H336.182L321.239,62.137,306.306,43.75H292.69l28.549,35.164,14.942,18.378H349.8L328.052,70.517Z" transform="translate(-201.392 -31.641)" fill="#fff"/>
      <path id="Path_3" data-name="Path 3" d="M212.293,84.627c-5.417,0-7.837-2.42-7.837-7.837V52.237H216.4v-10.6H204.456V29.69h-10.61V41.635H186.68v10.6h7.165V76.79c0,12.057,6.373,18.439,18.439,18.439h6.537v-10.6Z" transform="translate(-186.68 -29.69)" fill="#fff"/>
      <path id="Path_4" data-name="Path 4" d="M263.445,43.56H246.729c-12.057,0-18.439,6.382-18.439,18.439v1.722h10.6v-1.7c0-5.417,2.42-7.837,7.837-7.837h16.716c4.607,0,7.019,1.722,7.639,5.546l-34.173,7.751c-3.927.861-8.612,3.858-8.612,13.625,0,7.32,3.2,16.045,18.439,16.045h16.716c12.057,0,18.439-6.373,18.439-18.439V62.025c0-12.057-6.373-18.439-18.439-18.439m7.837,27.042v8.113c0,5.426-2.42,7.837-7.837,7.837H246.729c-5.417,0-7.837-2.411-7.837-7.837,0-.276,0-.56.723-.861Z" transform="translate(-192.455 -31.615)" fill="#fff"/>
      <path id="Path_5" data-name="Path 5" d="M212.251,84.794c-5.417,0-7.837-2.42-7.837-7.837V52.378H216.35V41.828H204.414V29.9H193.847V41.828H186.69v10.55h7.157V76.957c0,12.057,6.364,18.413,18.413,18.413h6.485V84.794Z" transform="translate(-186.682 -29.719)" fill="#fff"/>
      <path id="Path_6" data-name="Path 6" d="M263.335,43.75H246.627c-12.057,0-18.413,6.373-18.413,18.422v1.722H238.79V62.172c0-5.426,2.411-7.846,7.837-7.846h16.708c4.616,0,7.019,1.722,7.648,5.555l-34.191,7.751c-7.088,1.49-8.612,8.216-8.612,13.6,0,13.246,10.007,16.027,18.413,16.027h16.742c12.057,0,18.413-6.373,18.413-18.413V62.172C281.774,50.123,275.392,43.75,263.335,43.75Zm7.837,35.129c0,5.417-2.42,7.837-7.837,7.837H246.627c-5.426,0-7.837-2.42-7.837-7.837,0-.284,0-.577.723-.861l31.658-7.277Z" transform="translate(-192.44 -31.641)" fill="#fff"/>
      <path id="Path_7" data-name="Path 7" d="M321.239,84.58,310.474,97.86a13.9,13.9,0,0,1-10.791,5.167H292.69l14.977-18.422Z" transform="translate(-201.392 -37.307)" fill="#fff"/>
    </g>
  </g>
</svg>
