<svg id="eTax_New_logo" data-name="eTax New logo" xmlns="http://www.w3.org/2000/svg" width="148.954" height="56.44" viewBox="0 0 148.954 56.44">
  <path id="Path_1" data-name="Path 1" d="M320.2,43.75h-6.56l-7.2,8.858L299.25,43.75h-6.56l13.754,16.941,7.2,8.854h6.56l-10.477-12.9Z" transform="translate(-171.249 -25.598)" fill="#002e6d"/>
  <path id="Path_2" data-name="Path 2" d="M43.6,10.788C58.868,8.817,68.083,14.983,57.262,24.6,45.371,35.176,20.459,42.578,19.19,42.861s-1.465-1.394,1.759-2.552a123.017,123.017,0,0,0,17.318-8.655c11.352-6.676,14.29-16.053,8.713-17.679-4.788-1.39-17.343,3.527-27.164,15.767C8.228,44.114,9.879,59.333,27.625,55.968c18.771-3.572,32.952-18.916,34.5-20.7A9.618,9.618,0,0,0,64.548,28.8V0H0V41.578C4.813,28.753,20.5,13.763,43.6,10.788" fill="#e1251b"/>
  <path id="Path_3" data-name="Path 3" d="M199.02,56.157c-2.61,0-3.776-1.166-3.776-3.776V40.552H201V35.445h-5.755V29.69h-5.112v5.755H186.68v5.108h3.452V52.382c0,5.809,3.07,8.883,8.883,8.883h3.149V56.157Z" transform="translate(-109.224 -17.371)" fill="#002e6d"/>
  <path id="Path_4" data-name="Path 4" d="M245.227,43.56h-8.053c-5.809,0-8.883,3.075-8.883,8.883v.83H233.4v-.817c0-2.61,1.166-3.776,3.776-3.776h8.053c2.22,0,3.382.83,3.68,2.672l-16.464,3.734c-1.892.415-4.149,1.859-4.149,6.564,0,3.527,1.539,7.73,8.883,7.73h8.053c5.809,0,8.883-3.07,8.883-8.883V52.456c0-5.809-3.07-8.883-8.883-8.883M249.007,56.6v3.908c0,2.614-1.166,3.776-3.776,3.776h-8.058c-2.61,0-3.776-1.162-3.776-3.776,0-.133,0-.27.349-.415Z" transform="translate(-133.57 -25.486)" fill="#002e6d"/>
  <path id="Path_5" data-name="Path 5" d="M199,56.347c-2.61,0-3.776-1.166-3.776-3.776V40.729h5.751V35.647h-5.751V29.9h-5.091v5.747H186.69v5.083h3.448V52.571c0,5.809,3.066,8.871,8.871,8.871h3.124v-5.1Z" transform="translate(-109.23 -17.494)" fill="#002e6d"/>
  <path id="Path_6" data-name="Path 6" d="M245.117,43.75h-8.049c-5.809,0-8.871,3.07-8.871,8.875v.83h5.1v-.83c0-2.614,1.162-3.78,3.776-3.78h8.049c2.224,0,3.382.83,3.684,2.676l-16.472,3.734c-3.415.718-4.149,3.958-4.149,6.551,0,6.381,4.821,7.722,8.871,7.722h8.066c5.809,0,8.871-3.07,8.871-8.871V52.625C254,46.82,250.926,43.75,245.117,43.75Zm3.776,16.924c0,2.61-1.166,3.776-3.776,3.776h-8.049c-2.614,0-3.776-1.166-3.776-3.776,0-.137,0-.278.349-.415l15.252-3.506Z" transform="translate(-133.505 -25.598)" fill="#002e6d"/>
  <path id="Path_7" data-name="Path 7" d="M306.444,84.58l-5.186,6.4a6.7,6.7,0,0,1-5.2,2.489H292.69l7.215-8.875Z" transform="translate(-171.249 -49.487)" fill="#e1251b"/>
</svg>
